<?xml version="1.0" encoding="utf-8"?>
<!-- Generator: Adobe Illustrator 16.0.0, SVG Export Plug-In . SVG Version: 6.00 Build 0)  -->
<!DOCTYPE svg PUBLIC "-//W3C//DTD SVG 1.1//EN" "http://www.w3.org/Graphics/SVG/1.1/DTD/svg11.dtd">
<svg version="1.1" id="Layer_1" xmlns="http://www.w3.org/2000/svg" xmlns:xlink="http://www.w3.org/1999/xlink" x="0px" y="0px"
	 width="480px" height="480px" viewBox="0 0 480 480" enable-background="new 0 0 480 480" xml:space="preserve">
<g>
	<g>
		<path fill="#5789D6" d="M173.4,278.5h48V480h-48V278.5z"/>
		<path fill="#699CE6" d="M173.4,278.5h24V480h-24V278.5z"/>
	</g>
	<g>
		<path fill="#4A235A" d="M259.6,211.5h48V480h-48V211.5z"/>
		<path fill="#6C3483" d="M259.6,211.5h24V480h-24V211.5z"/>
	</g>
	<g>
		<path fill="#CA5057" d="M345.8,129.467h48V480h-48V129.467z"/>
		<path fill="#DC6068" d="M345.8,129.467h24V480h-24V129.467z"/>
	</g>
	<g>
		<path fill="#641E16" d="M432,2h48v478h-48V2z"/>
		<path fill="#A93226" d="M432,2h24v478h-24V2z"/>
	</g>
	<g>
		<path fill="#EC765A" d="M1,145.467c0,61.855,50.145,112,112,112v-112H1z"/>
		<path fill="#CA5057" d="M145,225.467c61.855,0,112-50.145,112-112s-50.145-112-112-112s-112,50.145-112,112h112V225.467z"/>
		<path fill="#D96049" d="M145,113.467h112c0,61.855-50.145,112-112,112V113.467z"/>
		<path fill="#DC6068" d="M145,113.467L65.809,34.268C45.535,54.537,33,82.537,33,113.467H145z"/>
	</g>
	<g>
		<path fill="#98BE61" d="M87.2,315.5h48V480h-48V315.5z"/>
		<path fill="#ABD176" d="M87.2,315.5h24V480h-24V315.5z"/>
	</g>
	<g>
		<path fill="#EEBC5A" d="M1,352h48v128H1V352z"/>
		<path fill="#F8CF6A" d="M1,352h24v128H1V352z"/>
	</g>
</g>
</svg>
